PathFileType	3	(X/Y/Z)	squats_2__view2_aligned.trc
DataRate	CameraRate	NumFrames	NumMarkers	Units	OrigDataRate	OrigDataStartFrame	OrigNumFrames
100.0	100.0	15	19	mm	100.0	1279	1550
Frame#	Time	pelvis			neck			head			hip_left			hip_right			knee_left			knee_right			ankle_left			ankle_right			heel_left			heel_right			toe_left			toe_right			shoulder_left			shoulder_right			elbow_left			elbow_right			wrist_left			wrist_right			
		X1	Y1	Z1	X2	Y2	Z2	X3	Y3	Z3	X4	Y4	Z4	X5	Y5	Z5	X6	Y6	Z6	X7	Y7	Z7	X8	Y8	Z8	X9	Y9	Z9	X10	Y10	Z10	X11	Y11	Z11	X12	Y12	Z12	X13	Y13	Z13	X14	Y14	Z14	X15	Y15	Z15	X16	Y16	Z16	X17	Y17	Z17	X18	Y18	Z18	X19	Y19	Z19	
1279	12.78000	-67.788826	713.164258	68.607124	-67.958143	1148.137909	-226.579374	-77.771414	1249.167439	-354.203958	-140.962122	708.787724	66.309930	5.384291	717.540793	70.904278	-213.513232	466.579319	-239.249034	116.105531	444.772984	-192.749306	-205.563498	175.090276	2.692178	102.857063	120.556855	3.141012	-204.039083	143.121601	48.710199	92.259414	88.185266	46.697712	-204.429088	96.623231	-149.222244	150.379991	25.083013	-139.970888	-236.738181	1113.409287	-208.188786	102.266856	1106.143422	-212.717662	-235.778765	832.967689	-226.710548	124.262956	828.265806	-236.101632	-16.922665	921.780028	-258.118179	-85.953698	909.920419	-308.274383
1280	12.79000	-68.883218	707.248431	68.407118	-68.480973	1141.062324	-227.335569	-78.625695	1241.457858	-355.240162	-142.020135	703.003619	66.014005	4.253543	711.493245	70.800197	-214.682952	464.842755	-241.910947	115.418751	441.577329	-194.629181	-206.261947	175.276433	2.128488	101.110240	118.686209	2.655881	-204.683057	143.594711	48.332834	90.401634	86.553330	46.339479	-205.797246	96.298968	-149.325751	148.631676	22.533101	-139.908737	-237.249184	1106.229021	-208.468741	101.682271	1099.494870	-213.363052	-236.412351	825.829086	-225.879193	124.133474	821.612443	-235.247633	-18.274426	915.383613	-259.269194	-86.059553	902.240914	-308.189029
1281	12.80000	-69.977609	701.332605	68.207113	-69.003803	1133.986740	-228.091764	-79.479976	1233.748276	-356.276366	-143.078147	697.219513	65.718080	3.122795	705.445697	70.696116	-215.852672	463.106192	-244.572861	114.731971	438.381674	-196.509056	-206.960396	175.462590	1.564798	99.363417	116.815562	2.170751	-205.327030	144.067821	47.955470	88.543854	84.921395	45.981247	-207.165405	95.974705	-149.429259	146.883361	19.983190	-139.846586	-237.760186	1099.048754	-208.748696	101.097686	1092.846318	-214.008443	-237.045937	818.690483	-225.047838	124.003993	814.959080	-234.393634	-19.626187	908.987199	-260.420210	-86.165408	894.561409	-308.103675
1282	12.81000	-71.072000	695.416778	68.007107	-69.526632	1126.911155	-228.847959	-80.334257	1226.038694	-357.312569	-144.136160	691.435408	65.422155	1.992048	699.398149	70.592035	-217.022393	461.369628	-247.234774	114.045191	435.186019	-198.388931	-207.658844	175.648747	1.001109	97.616594	114.944916	1.685620	-205.971003	144.540931	47.578105	86.686074	83.289459	45.623015	-208.533563	95.650441	-149.532767	145.135047	17.433278	-139.784435	-238.271189	1091.868488	-209.028651	100.513101	1086.197766	-214.653833	-237.679523	811.551880	-224.216484	123.874511	808.305717	-233.539636	-20.977948	902.590784	-261.571226	-86.271263	886.881904	-308.018321
1283	12.82000	-72.166392	689.500951	67.807102	-70.049462	1119.835570	-229.604153	-81.188538	1218.329113	-358.348773	-145.194172	685.651302	65.126230	0.861300	693.350600	70.487954	-218.192113	459.633065	-249.896687	113.358411	431.990363	-200.268807	-208.357293	175.834904	0.437419	95.869771	113.074270	1.200490	-206.614976	145.014041	47.200741	84.828294	81.657523	45.264782	-209.901722	95.326178	-149.636275	143.386732	14.883366	-139.722284	-238.782192	1084.688221	-209.308606	99.928515	1079.549214	-215.299223	-238.313110	804.413276	-223.385129	123.745030	801.652354	-232.685637	-22.329709	896.194370	-262.722241	-86.377118	879.202398	-307.932967
1284	12.83000	-73.260783	683.585124	67.607097	-70.572292	1112.759985	-230.360348	-82.042819	1210.619531	-359.384976	-146.252184	679.867197	64.830305	-0.269448	687.303052	70.383873	-219.361834	457.896501	-252.558600	112.671631	428.794708	-202.148682	-209.055742	176.021061	-0.126271	94.122948	111.203623	0.715359	-207.258949	145.487151	46.823377	82.970514	80.025588	44.906550	-211.269880	95.001915	-149.739782	141.638417	12.333454	-139.660133	-239.293195	1077.507955	-209.588561	99.343930	1072.900662	-215.944614	-238.946696	797.274673	-222.553774	123.615548	794.998991	-231.831639	-23.681470	889.797955	-263.873257	-86.482974	871.522893	-307.847613
1285	12.84000	-74.355174	677.669298	67.407091	-71.095121	1105.684401	-231.116543	-82.897100	1202.909950	-360.421180	-147.310197	674.083091	64.534380	-1.400196	681.255504	70.279792	-220.531554	456.159937	-255.220513	111.984851	425.599053	-204.028557	-209.754190	176.207219	-0.689960	92.376125	109.332977	0.230228	-207.902923	145.960261	46.446012	81.112734	78.393652	44.548318	-212.638039	94.677652	-149.843290	139.890103	9.783542	-139.597982	-239.804198	1070.327689	-209.868516	98.759345	1066.252111	-216.590004	-239.580282	790.136070	-221.722420	123.486067	788.345628	-230.977640	-25.033231	883.401540	-265.024273	-86.588829	863.843388	-307.762259
1286	12.85000	-75.449566	671.753471	67.207086	-71.617951	1098.608816	-231.872738	-83.751381	1195.200368	-361.457383	-148.368209	668.298985	64.238455	-2.530944	675.207956	70.175711	-221.701274	454.423374	-257.882427	111.298071	422.403398	-205.908432	-210.452639	176.393376	-1.253650	90.629302	107.462331	-0.254902	-208.546896	146.433371	46.068648	79.254954	76.761716	44.190086	-214.006197	94.353389	-149.946798	138.141788	7.233631	-139.535830	-240.315201	1063.147422	-210.148470	98.174760	1059.603559	-217.235394	-240.213868	782.997466	-220.891065	123.356585	781.692264	-230.123641	-26.384992	877.005126	-266.175288	-86.694684	856.163883	-307.676905
1287	12.86000	-76.543957	665.837644	67.007080	-72.140781	1091.533231	-232.628932	-84.605662	1187.490786	-362.493587	-149.426222	662.514880	63.942531	-3.661692	669.160408	70.071630	-222.870995	452.686810	-260.544340	110.611291	419.207743	-207.788308	-211.151088	176.579533	-1.817340	88.882479	105.591684	-0.740033	-209.190869	146.906481	45.691283	77.397174	75.129781	43.831853	-215.374356	94.029126	-150.050306	136.393473	4.683719	-139.473679	-240.826204	1055.967156	-210.428425	97.590175	1052.955007	-217.880785	-240.847455	775.858863	-220.059710	123.227104	775.038901	-229.269643	-27.736753	870.608711	-267.326304	-86.800539	848.484378	-307.591551
1288	12.87000	-75.715854	660.392036	66.822258	-71.741994	1085.250137	-233.247768	-84.495604	1180.770654	-363.291860	-148.596809	657.064370	63.741485	-2.834899	663.719702	69.903030	-222.678997	451.086307	-262.122739	112.370049	418.491514	-210.211835	-209.990867	176.640916	-1.989127	89.926880	106.734964	-1.271334	-207.908069	147.200034	45.646396	78.401126	76.542357	43.468684	-214.559824	93.720912	-149.863275	137.528565	5.257027	-139.465221	-240.516118	1049.285403	-210.776287	98.088714	1047.398547	-218.556899	-240.490002	769.194055	-220.597458	124.891131	769.560541	-229.485490	-27.735894	864.558638	-268.652469	-85.540183	842.006990	-308.014169
1289	12.88000	-74.887751	654.946428	66.637435	-71.343207	1078.967043	-233.866604	-84.385546	1174.050521	-364.090133	-147.767397	651.613861	63.540440	-2.008106	658.278995	69.734429	-222.486998	449.485803	-263.701138	114.128806	417.775285	-212.635362	-208.830647	176.702300	-2.160914	90.971281	107.878243	-1.802635	-206.625269	147.493588	45.601508	79.405077	77.954934	43.105515	-213.745293	93.412698	-149.676244	138.663658	5.830336	-139.456763	-240.206033	1042.603650	-211.124148	98.587254	1041.842087	-219.233013	-240.132549	762.529248	-221.135205	126.555159	764.082181	-229.701338	-27.735034	858.508564	-269.978633	-84.279828	835.529603	-308.436787
1290	12.89000	-74.059648	649.500820	66.452612	-70.944421	1072.683948	-234.485440	-84.275489	1167.330389	-364.888407	-146.937984	646.163352	63.339395	-1.181313	652.838289	69.565828	-222.295000	447.885300	-265.279537	115.887563	417.059057	-215.058889	-207.670426	176.763683	-2.332701	92.015683	109.021523	-2.333936	-205.342468	147.787141	45.556620	80.409029	79.367511	42.742347	-212.930762	93.104485	-149.489214	139.798750	6.403644	-139.448305	-239.895948	1035.921898	-211.472010	99.085793	1036.285627	-219.909127	-239.775096	755.864440	-221.672952	128.219186	758.603821	-229.917185	-27.734175	852.458490	-271.304798	-83.019472	829.052215	-308.859405
1291	12.90000	-73.231545	644.055212	66.267789	-70.545634	1066.400854	-235.104276	-84.165431	1160.610257	-365.686680	-146.108571	640.712842	63.138350	-0.354520	647.397582	69.397228	-222.103002	446.284797	-266.857936	117.646321	416.342828	-217.482417	-206.510206	176.825066	-2.504488	93.060084	110.164802	-2.865237	-204.059668	148.080694	45.511733	81.412981	80.780087	42.379178	-212.116231	92.796271	-149.302183	140.933842	6.976953	-139.439847	-239.585862	1029.240145	-211.819871	99.584333	1030.729168	-220.585241	-239.417644	749.199632	-222.210700	129.883214	753.125460	-230.133033	-27.733315	846.408417	-272.630963	-81.759116	822.574828	-309.282023
1292	12.91000	-72.403443	638.609604	66.082966	-70.146847	1060.117760	-235.723112	-84.055373	1153.890124	-366.484953	-145.279159	635.262333	62.937305	0.472273	641.956875	69.228627	-221.911004	444.684294	-268.436335	119.405078	415.626599	-219.905944	-205.349986	176.886449	-2.676275	94.104485	111.308082	-3.396538	-202.776868	148.374247	45.466845	82.416932	82.192664	42.016009	-211.301700	92.488057	-149.115152	142.068934	7.550261	-139.431388	-239.275777	1022.558392	-212.167733	100.082872	1025.172708	-221.261355	-239.060191	742.534825	-222.748447	131.547242	747.647100	-230.348880	-27.732456	840.358343	-273.957128	-80.498761	816.097441	-309.704641
1293	12.92000	-71.575340	633.163996	65.898143	-69.748060	1053.834666	-236.341948	-83.945315	1147.169992	-367.283226	-144.449746	629.811824	62.736260	1.299067	636.516169	69.060026	-221.719006	443.083791	-270.014734	121.163836	414.910370	-222.329471	-204.189765	176.947833	-2.848061	95.148886	112.451361	-3.927839	-201.494068	148.667801	45.421957	83.420884	83.605241	41.652840	-210.487168	92.179844	-148.928121	143.204026	8.123569	-139.422930	-238.965691	1015.876640	-212.515595	100.581412	1019.616248	-221.937469	-238.702738	735.870017	-223.286195	133.211269	742.168740	-230.564728	-27.731597	834.308270	-275.283292	-79.238405	809.620053	-310.127259
